<?xml version="1.0" encoding="utf-8"?>
<!-- Generator: Adobe Illustrator 18.1.1, SVG Export Plug-In . SVG Version: 6.00 Build 0)  -->
<svg version="1.1" id="Layer_1" xmlns="http://www.w3.org/2000/svg" xmlns:xlink="http://www.w3.org/1999/xlink" x="0px" y="0px"
	 viewBox="0 0 442 442" enable-background="new 0 0 442 442" xml:space="preserve">
<g>
	<g>
		<g>
			<g>
				<path fill="#231F20" d="M64.1,284.4v27.1h-3.5v-27.1H64.1z"/>
				<path fill="#231F20" d="M103.1,299.6c-0.2-3.8-0.4-8.4-0.4-11.7h-0.1c-1,3.1-2,6.6-3.4,10.3l-4.8,13.1h-2.7l-4.4-12.9
					c-1.3-3.9-2.3-7.3-3.1-10.5h-0.1c-0.1,3.4-0.3,7.9-0.5,12l-0.7,11.6h-3.3l1.9-27.1h4.5l4.6,13.1c1.1,3.3,2,6.3,2.7,9.1h0.1
					c0.7-2.7,1.7-5.7,2.9-9.1l4.8-13.1h4.5l1.7,27.1h-3.5L103.1,299.6z"/>
				<path fill="#231F20" d="M122.6,284.7c1.7-0.3,3.9-0.5,6.7-0.5c3.5,0,6,0.8,7.6,2.2c1.4,1.3,2.4,3.3,2.4,5.7
					c0,2.5-0.7,4.4-2.1,5.8c-1.9,2-4.9,3-8.3,3c-1,0-2,0-2.8-0.2v10.8h-3.5V284.7z M126.1,297.8c0.8,0.2,1.7,0.3,2.9,0.3
					c4.2,0,6.8-2.1,6.8-5.7c0-3.6-2.6-5.3-6.4-5.3c-1.5,0-2.7,0.1-3.3,0.3V297.8z"/>
				<path fill="#231F20" d="M154,284.8c1.8-0.3,4.3-0.6,6.7-0.6c3.7,0,6.2,0.7,7.8,2.2c1.3,1.2,2.1,3.1,2.1,5.2
					c0,3.5-2.2,5.9-5.1,6.9v0.1c2.1,0.7,3.3,2.6,3.9,5.5c0.9,3.8,1.5,6.4,2.1,7.4H168c-0.4-0.8-1-3.1-1.8-6.5
					c-0.8-3.7-2.3-5.1-5.5-5.3h-3.3v11.7H154V284.8z M157.5,297.1h3.6c3.7,0,6.1-2.1,6.1-5.1c0-3.5-2.5-5-6.2-5
					c-1.7,0-2.9,0.1-3.5,0.3V297.1z"/>
				<path fill="#231F20" d="M189.2,284.4v27.1h-3.5v-27.1H189.2z"/>
				<path fill="#231F20" d="M228.2,299.6c-0.2-3.8-0.4-8.4-0.4-11.7h-0.1c-1,3.1-2,6.6-3.4,10.3l-4.8,13.1h-2.7l-4.4-12.9
					c-1.3-3.9-2.3-7.3-3.1-10.5h-0.1c-0.1,3.4-0.3,7.9-0.5,12l-0.7,11.6h-3.3l1.9-27.1h4.5l4.6,13.1c1.1,3.3,2,6.3,2.7,9.1h0.1
					c0.7-2.7,1.7-5.7,2.9-9.1l4.8-13.1h4.5l1.7,27.1h-3.5L228.2,299.6z"/>
				<path fill="#231F20" d="M261.7,298.8h-10.5v9.8h11.7v2.9h-15.3v-27.1h14.7v2.9h-11.1v8.6h10.5V298.8z"/>
				<path fill="#231F20" d="M277.5,284.8c1.8-0.3,4.3-0.6,6.7-0.6c3.7,0,6.2,0.7,7.8,2.2c1.3,1.2,2.1,3.1,2.1,5.2
					c0,3.5-2.2,5.9-5.1,6.9v0.1c2.1,0.7,3.3,2.6,3.9,5.5c0.9,3.8,1.5,6.4,2.1,7.4h-3.6c-0.4-0.8-1-3.1-1.8-6.5
					c-0.8-3.7-2.3-5.1-5.5-5.3H281v11.7h-3.5V284.8z M281,297.1h3.6c3.7,0,6.1-2.1,6.1-5.1c0-3.5-2.5-5-6.2-5
					c-1.7,0-2.9,0.1-3.5,0.3V297.1z"/>
				<path fill="#231F20" d="M312.7,284.4v27.1h-3.5v-27.1H312.7z"/>
				<path fill="#231F20" d="M342.8,298.8h-10.5v9.8h11.7v2.9h-15.3v-27.1h14.7v2.9h-11.1v8.6h10.5V298.8z"/>
			</g>
			<linearGradient id="SVGID_1_" gradientUnits="userSpaceOnUse" x1="192.3787" y1="71.6104" x2="230.0468" y2="91.6519">
				<stop  offset="0" style="stop-color:#FFDB00"/>
				<stop  offset="0.3064" style="stop-color:#FFDC03"/>
				<stop  offset="0.5083" style="stop-color:#FFDF0C"/>
				<stop  offset="0.68" style="stop-color:#FFE31B"/>
				<stop  offset="0.8348" style="stop-color:#FFEA30"/>
				<stop  offset="0.977" style="stop-color:#FFF24B"/>
				<stop  offset="1" style="stop-color:#FFF450"/>
			</linearGradient>
			<circle fill="url(#SVGID_1_)" cx="210.9" cy="81.5" r="23.8"/>
			<linearGradient id="SVGID_2_" gradientUnits="userSpaceOnUse" x1="187.126" y1="170.132" x2="234.7425" y2="170.132">
				<stop  offset="0" style="stop-color:#FF2EFF"/>
				<stop  offset="1" style="stop-color:#EB008B"/>
			</linearGradient>
			<circle fill="url(#SVGID_2_)" cx="210.9" cy="170.1" r="23.8"/>
			<g>
				<linearGradient id="SVGID_3_" gradientUnits="userSpaceOnUse" x1="176.9267" y1="-1.8082" x2="302.3961" y2="218.5677">
					<stop  offset="0" style="stop-color:#565757"/>
					<stop  offset="7.587302e-002" style="stop-color:#3D3E3E"/>
					<stop  offset="0.1696" style="stop-color:#272727"/>
					<stop  offset="0.2782" style="stop-color:#151616"/>
					<stop  offset="0.4091" style="stop-color:#090909"/>
					<stop  offset="0.5853" style="stop-color:#020202"/>
					<stop  offset="1" style="stop-color:#000000"/>
				</linearGradient>
				<path fill="url(#SVGID_3_)" d="M157.7,104.5V24.2h111.4v99.6c1.3,0.5,2.7,0.9,4.1,1.4V20.2H153.7v84.4
					C155,104.5,156.4,104.5,157.7,104.5z"/>
				<linearGradient id="SVGID_4_" gradientUnits="userSpaceOnUse" x1="117.4129" y1="32.0756" x2="242.8824" y2="252.4514">
					<stop  offset="0" style="stop-color:#666666"/>
					<stop  offset="1" style="stop-color:#000000"/>
				</linearGradient>
				<path fill="url(#SVGID_4_)" d="M269.2,165.5v64.4H157.7V128.2c-1.3-0.3-2.7-0.5-4.1-0.8V234h119.5v-66.3
					C271.9,166.9,270.6,166.2,269.2,165.5z"/>
			</g>
			<linearGradient id="SVGID_5_" gradientUnits="userSpaceOnUse" x1="99.71" y1="159.7706" x2="360.5568" y2="159.7706">
				<stop  offset="0" style="stop-color:#00D9EE"/>
				<stop  offset="0.3919" style="stop-color:#00B7EE"/>
				<stop  offset="0.7749" style="stop-color:#009CEE"/>
				<stop  offset="1" style="stop-color:#0092EE"/>
			</linearGradient>
			<path fill="url(#SVGID_5_)" d="M341.6,208.9c0,0-78.6-81.8-241.9-92.2c0,0,127.4-33.9,260.4,59.9
				C360.2,176.6,364.9,188.2,341.6,208.9z"/>
			<g>
				<g>
					<linearGradient id="SVGID_6_" gradientUnits="userSpaceOnUse" x1="81.3696" y1="352.8658" x2="316.2227" y2="397.9061">
						<stop  offset="0" style="stop-color:#000000"/>
						<stop  offset="1" style="stop-color:#414141"/>
					</linearGradient>
					<path fill="url(#SVGID_6_)" d="M104.5,349.8v23.9h-9.6v-33.5h12.5c5.5,0,9.8,1.3,12.9,3.9c3.7,3.1,5.5,7.3,5.5,12.6
						c0,5.1-1.6,9.2-4.7,12.4c-3.1,3.2-7.2,4.8-12.2,4.8c-0.6,0-1.5,0-2.9-0.1v-9.8h1.5c5.6,0,8.4-2.4,8.4-7.3
						c0-4.6-2.8-6.8-8.2-6.8H104.5z"/>
					<linearGradient id="SVGID_7_" gradientUnits="userSpaceOnUse" x1="83.1793" y1="343.4293" x2="318.0324" y2="388.4696">
						<stop  offset="0" style="stop-color:#000000"/>
						<stop  offset="1" style="stop-color:#414141"/>
					</linearGradient>
					<path fill="url(#SVGID_7_)" d="M153.8,339.4c4.6,0,8.5,1.7,11.7,5.2c3.3,3.4,4.9,7.6,4.9,12.4c0,4.9-1.6,9-4.9,12.4
						c-3.3,3.4-7.3,5.1-12,5.1c-4.7,0-8.7-1.7-12-5.2c-3.3-3.4-5-7.6-5-12.4c0-4.9,1.7-9.1,5-12.5
						C144.9,341.1,149,339.4,153.8,339.4z M153.5,349.2c-2,0-3.6,0.7-5,2.3c-1.4,1.5-2.1,3.3-2.1,5.4c0,2.1,0.7,3.9,2.1,5.4
						c1.4,1.5,3.1,2.3,5,2.3c2,0,3.7-0.7,5-2.2c1.4-1.5,2.1-3.3,2.1-5.5c0-2.2-0.7-4-2.1-5.5C157.2,350,155.5,349.2,153.5,349.2z"/>
					<linearGradient id="SVGID_8_" gradientUnits="userSpaceOnUse" x1="85.6381" y1="330.6087" x2="320.4912" y2="375.649">
						<stop  offset="0" style="stop-color:#000000"/>
						<stop  offset="1" style="stop-color:#414141"/>
					</linearGradient>
					<path fill="url(#SVGID_8_)" d="M224.9,349.8v23.9h-9.6v-33.5h12.5c5.5,0,9.8,1.3,12.9,3.9c3.7,3.1,5.5,7.3,5.5,12.6
						c0,5.1-1.6,9.2-4.7,12.4c-3.2,3.2-7.2,4.8-12.2,4.8c-0.6,0-1.5,0-2.9-0.1v-9.8h1.5c5.6,0,8.4-2.4,8.4-7.3
						c0-4.6-2.7-6.8-8.2-6.8H224.9z"/>
					<linearGradient id="SVGID_9_" gradientUnits="userSpaceOnUse" x1="87.448" y1="321.1711" x2="322.3011" y2="366.2114">
						<stop  offset="0" style="stop-color:#000000"/>
						<stop  offset="1" style="stop-color:#414141"/>
					</linearGradient>
					<path fill="url(#SVGID_9_)" d="M274.1,339.4c4.6,0,8.5,1.7,11.7,5.2c3.3,3.4,4.9,7.6,4.9,12.4c0,4.9-1.6,9-4.9,12.4
						c-3.3,3.4-7.3,5.1-12,5.1c-4.7,0-8.7-1.7-12-5.2c-3.3-3.4-5-7.6-5-12.4c0-4.9,1.7-9.1,5-12.5
						C265.2,341.1,269.3,339.4,274.1,339.4z M273.9,349.2c-2,0-3.6,0.7-5,2.3c-1.4,1.5-2.1,3.3-2.1,5.4c0,2.1,0.7,3.9,2.1,5.4
						c1.4,1.5,3.1,2.3,5,2.3c2,0,3.7-0.7,5-2.2c1.4-1.5,2.1-3.3,2.1-5.5c0-2.2-0.7-4-2.1-5.5C277.5,350,275.8,349.2,273.9,349.2z"/>
					<g>
						<linearGradient id="SVGID_10_" gradientUnits="userSpaceOnUse" x1="89.023" y1="312.9585" x2="323.8762" y2="357.9988">
							<stop  offset="0" style="stop-color:#000000"/>
							<stop  offset="1" style="stop-color:#414141"/>
						</linearGradient>
						<path fill="url(#SVGID_10_)" d="M315.3,340.2l0,34.1c2.5-0.4,4.7-1.5,6.3-3.2c2.2-2.3,3.3-5.3,3.3-9.2v-21.7H315.3z"/>
						<linearGradient id="SVGID_11_" gradientUnits="userSpaceOnUse" x1="88.6928" y1="314.6802" x2="323.546" y2="359.7206">
							<stop  offset="0" style="stop-color:#000000"/>
							<stop  offset="1" style="stop-color:#414141"/>
						</linearGradient>
						<path fill="url(#SVGID_11_)" d="M311.1,340.2h-9.6v21.4c0,4.2,1,7.4,2.9,9.6c1.6,1.9,3.9,3,6.7,3.2L311.1,340.2z"/>
					</g>
					<g>
						<linearGradient id="SVGID_12_" gradientUnits="userSpaceOnUse" x1="84.7547" y1="335.215" x2="319.6078" y2="380.2553">
							<stop  offset="0" style="stop-color:#000000"/>
							<stop  offset="1" style="stop-color:#414141"/>
						</linearGradient>
						<path fill="url(#SVGID_12_)" d="M194.9,340.2l0,34.1c2.5-0.4,4.7-1.5,6.3-3.2c2.2-2.3,3.3-5.3,3.3-9.2v-21.7H194.9z"/>
						<linearGradient id="SVGID_13_" gradientUnits="userSpaceOnUse" x1="84.4244" y1="336.9371" x2="319.2775" y2="381.9774">
							<stop  offset="0" style="stop-color:#000000"/>
							<stop  offset="1" style="stop-color:#414141"/>
						</linearGradient>
						<path fill="url(#SVGID_13_)" d="M190.8,340.2h-9.6v21.4c0,4.2,1,7.4,2.9,9.6c1.6,1.9,3.9,3,6.7,3.2L190.8,340.2z"/>
					</g>
				</g>
			</g>
		</g>
		<linearGradient id="SVGID_14_" gradientUnits="userSpaceOnUse" x1="195.9883" y1="59.449" x2="205.2251" y2="72.9818">
			<stop  offset="0" style="stop-color:#FFFFFF;stop-opacity:0.6"/>
			<stop  offset="1" style="stop-color:#FFFFFF;stop-opacity:0.4"/>
		</linearGradient>
		<path fill="url(#SVGID_14_)" d="M187.6,90.4c0,0-8.6-19.1,7.1-30c0.1-0.1,17.6-13.9,33.7,3.3C228.6,63.9,201.3,68.9,187.6,90.4z"
			/>
		<linearGradient id="SVGID_15_" gradientUnits="userSpaceOnUse" x1="195.7197" y1="147.0018" x2="204.6571" y2="160.0961">
			<stop  offset="0" style="stop-color:#FFFFFF;stop-opacity:0.4"/>
			<stop  offset="1" style="stop-color:#FFFFFF;stop-opacity:0.3"/>
		</linearGradient>
		<path fill="url(#SVGID_15_)" d="M187.5,176.7c0,0-8.3-18.3,6.9-28.7c0.1-0.1,17-13.3,32.7,3.1
			C227.2,151.4,200.8,156.1,187.5,176.7z"/>
		
			<linearGradient id="SVGID_16_" gradientUnits="userSpaceOnUse" x1="2071.2131" y1="1275.802" x2="2080.1506" y2="1288.8962" gradientTransform="matrix(6.9957 1.0247 -0.2654 1.8117 -13992.3984 -4117.1147)">
			<stop  offset="0" style="stop-color:#FFFFFF;stop-opacity:0.2"/>
			<stop  offset="1" style="stop-color:#FFFFFF;stop-opacity:0.2"/>
		</linearGradient>
		<path fill="url(#SVGID_16_)" d="M93.1,362c0,0-53.5-41.6,55.9-44.9c0.9-0.1,122.5-6.6,228,39.2C378,356.8,191.6,338.3,93.1,362z"
			/>
		
			<linearGradient id="SVGID_17_" gradientUnits="userSpaceOnUse" x1="99.3479" y1="83.3619" x2="302.794" y2="83.3619" gradientTransform="matrix(0.9999 -1.542432e-002 1.542432e-002 0.9999 -29.3234 37.2737)">
			<stop  offset="0" style="stop-color:#FFFFFF;stop-opacity:0.2"/>
			<stop  offset="1" style="stop-color:#FFFFFF;stop-opacity:0.1"/>
		</linearGradient>
		<path fill="url(#SVGID_17_)" d="M71.3,119.5l203.6,10.4C274.9,129.9,179.3,78.9,71.3,119.5z"/>
	</g>
	
		<radialGradient id="SVGID_18_" cx="-1338.0029" cy="-790.652" r="207.8527" gradientTransform="matrix(0.6447 0 0 7.164349e-002 1079.8567 464.7913)" gradientUnits="userSpaceOnUse">
		<stop  offset="0" style="stop-color:#333333;stop-opacity:0.4"/>
		<stop  offset="8.617669e-002" style="stop-color:#505050;stop-opacity:0.4"/>
		<stop  offset="0.2583" style="stop-color:#858585;stop-opacity:0.4"/>
		<stop  offset="0.4273" style="stop-color:#B1B1B1;stop-opacity:0.4"/>
		<stop  offset="0.5894" style="stop-color:#D3D3D3;stop-opacity:0.4"/>
		<stop  offset="0.7425" style="stop-color:#EBEBEB;stop-opacity:0.4"/>
		<stop  offset="0.8832" style="stop-color:#FAFAFA;stop-opacity:0.4"/>
		<stop  offset="1" style="stop-color:#FFFFFF;stop-opacity:0.4"/>
	</radialGradient>
	<ellipse fill="url(#SVGID_18_)" cx="217.2" cy="408.1" rx="130.9" ry="13.7"/>
</g>
</svg>
